# xmcd
#
# Track frame offsets:
#	150
#	14234
#	28514
#	39115
#	58038
#	70126
#	84445
#	101948
#	114877
#	128044
#	143528
#	161393
#
# Disc length: 2317 seconds
#
# Revision: 0
# Processed by: cddbd v1.5.2PL0 Copyright (c) Steve Scherf et al.
# Submitted via: EasyCDDAExtractor 16.0.1.1
#
DISCID=94090b0c
DTITLE=Karen Collins - Backroads and Bayous
DYEAR=2004
DGENRE=Country
TTITLE0=If You're Waiting On Me
TTITLE1=Blue Moon
TTITLE2=Trademark
TTITLE3=The First In Line
TTITLE4=L' Annee De Cinquante-Sept
TTITLE5=Grand Texas
TTITLE6=Under A Green Oak Tree
TTITLE7=Hip Et Taiauts
TTITLE8=Trouble's Back In Town
TTITLE9=If Her Love Isn't True
TTITLE10=You And You Alone
TTITLE11=Don't Come Home A Drinkin'
EXTD=
EXTT0=
EXTT1=
EXTT2=
EXTT3=
EXTT4=
EXTT5=
EXTT6=
EXTT7=
EXTT8=
EXTT9=
EXTT10=
EXTT11=
PLAYORDER=
